<svg width="32" height="32" viewBox="0 0 32 32" fill="none" xmlns="http://www.w3.org/2000/svg">
<path d="M14.2171 17.5014L19.2348 22.8006C19.3909 22.9655 19.4746 23.1686 19.4857 23.41C19.4969 23.6514 19.4132 23.8652 19.2348 24.0512C19.0564 24.2373 18.8591 24.3315 18.6427 24.3338C18.4264 24.3362 18.2291 24.242 18.0506 24.0512L12.9492 18.6637C12.8043 18.5106 12.7006 18.3493 12.6381 18.1797C12.5757 18.0102 12.5445 17.8353 12.5445 17.6551V9.92007C12.5445 9.66924 12.6247 9.45963 12.7853 9.29123C12.9459 9.12284 13.1449 9.03805 13.3824 9.03687C13.6199 9.0357 13.8184 9.12048 13.9779 9.29123C14.1373 9.46199 14.2171 9.6716 14.2171 9.92007V17.5014ZM25.0889 7.06734H20.9074C20.6699 7.06734 20.4714 6.98256 20.312 6.81298C20.1514 6.64341 20.0711 6.43321 20.0711 6.18238C20.0711 5.93155 20.1514 5.72194 20.312 5.55354C20.4726 5.38515 20.671 5.30095 20.9074 5.30095H25.0889V0.884964C25.0889 0.634136 25.1692 0.423935 25.3298 0.254361C25.4903 0.0847872 25.6894 0 25.9269 0C26.1644 0 26.3629 0.0847872 26.5223 0.254361C26.6818 0.423935 26.7615 0.634136 26.7615 0.884964V5.30095H30.943C31.1805 5.30095 31.379 5.38574 31.5384 5.55531C31.6979 5.72488 31.7782 5.9345 31.7793 6.18415C31.7804 6.4338 31.7001 6.64341 31.5384 6.81298C31.3768 6.98256 31.1783 7.06734 30.943 7.06734H26.7615V11.4833C26.7615 11.733 26.6812 11.9426 26.5207 12.1122C26.3601 12.2817 26.1611 12.3659 25.9235 12.3648C25.686 12.3636 25.4876 12.2794 25.3281 12.1122C25.1686 11.9449 25.0889 11.7347 25.0889 11.4816V7.06734ZM8.16226 30.9013C6.53873 30.1688 5.11981 29.162 3.90551 27.8808C2.6912 26.5995 1.73671 25.1016 1.04203 23.3871C0.347342 21.6725 0 19.8348 0 17.8741C0 15.9134 0.346785 14.0746 1.04035 12.3577C1.73392 10.6408 2.68786 9.14168 3.90216 7.86046C5.11758 6.57805 6.5365 5.57062 8.15892 4.83815C9.78133 4.10569 11.5219 3.73887 13.3808 3.73769C13.6874 3.73769 13.9734 3.74535 14.2388 3.76065C14.5042 3.77596 14.7896 3.81247 15.0952 3.87017C15.3338 3.89372 15.5328 3.98793 15.6923 4.15279C15.8517 4.31766 15.9315 4.52197 15.9315 4.76573C15.9315 5.00949 15.8517 5.22146 15.6923 5.40163C15.5328 5.58181 15.3338 5.66012 15.0952 5.63656C14.8097 5.59064 14.5309 5.55708 14.2589 5.53588C13.989 5.51468 13.6963 5.50409 13.3808 5.50409C10.1348 5.50409 7.37168 6.70759 5.09138 9.1146C2.81107 11.5216 1.67148 14.4397 1.67259 17.8688C1.67371 21.298 2.8133 24.2161 5.09138 26.6231C7.36945 29.0301 10.1326 30.2336 13.3808 30.2336C16.6289 30.2336 19.3921 29.0301 21.6701 26.6231C23.9482 24.2161 25.0878 21.298 25.0889 17.8688C25.0889 17.618 25.1692 17.4084 25.3298 17.24C25.4903 17.0716 25.6894 16.9868 25.9269 16.9856C26.1644 16.9845 26.3629 17.0693 26.5223 17.24C26.6818 17.4108 26.7615 17.6204 26.7615 17.8688C26.7615 19.8319 26.4147 21.6701 25.7212 23.3835C25.0276 25.0969 24.0742 26.5954 22.861 27.879C21.6467 29.1602 20.2284 30.1671 18.6059 30.8995C16.9835 31.6332 15.2435 32 13.3858 32C11.5281 32 9.78691 31.6338 8.16226 30.9013Z" fill="white"/>
</svg>
